<svg xmlns="http://www.w3.org/2000/svg" version="1.1" xmlns:xlink="http://www.w3.org/1999/xlink" xmlns:svgjs="http://svgjs.dev/svgjs" width="1500" height="542" viewBox="0 0 1500 542"><g transform="matrix(1,0,0,1,-1.0400027235182279,-0.20010188004931706)"><svg viewBox="0 0 246 89" data-background-color="#4c061d" preserveAspectRatio="xMidYMid meet" height="542" width="1500" xmlns="http://www.w3.org/2000/svg" xmlns:xlink="http://www.w3.org/1999/xlink"><g id="tight-bounds" transform="matrix(1,0,0,1,0.17056044665699233,0.03285805779407269)"><svg viewBox="0 0 245.65887910668602 88.93428388441185" height="88.93428388441185" width="245.65887910668602"><g><svg viewBox="0 0 245.65887910668602 88.93428388441185" height="88.93428388441185" width="245.65887910668602"><g><svg viewBox="0 0 245.65887910668602 88.93428388441185" height="88.93428388441185" width="245.65887910668602"><g id="textblocktransform"><svg viewBox="0 0 245.65887910668602 88.93428388441185" height="88.93428388441185" width="245.65887910668602" id="textblock"><g><svg viewBox="0 0 245.65887910668602 62.0970703125" height="62.0970703125" width="245.65887910668602"><g><svg><g></g><g></g></svg></g><g><svg><g><svg></svg></g><g></g></svg></g><g id="text-0"><svg viewBox="0 0 245.65887910668602 62.0970703125" height="62.0970703125" width="245.65887910668602"><g transform="matrix(1,0,0,1,0,0)"><svg width="163.0640625" viewBox="0.54 -38.33 100.77 38.379999999999995" height="62.0970703125" data-palette-color="#ee4905"><path d="M12.55-5.76L2.05-23.29Q1.51-23.68 1.03-24.56 0.54-25.44 0.54-26.12L0.54-26.12Q0.54-26.86 1.12-27.25 1.71-27.64 2.34-27.64L2.34-27.64Q3.13-27.64 3.66-27.34 4.2-27.05 4.71-26.37 5.22-25.68 5.88-24.51 6.54-23.34 7.57-21.56 8.59-19.78 10.16-17.31 11.72-14.84 14.01-11.57L14.01-11.57Q14.16-11.18 14.55-10.62 14.94-10.06 15.04-9.91L15.04-9.91 15.23-10.3 17.92-20.41 18.12-20.85 20.02-27.64Q19.87-28.52 20.41-29.2 20.95-29.88 21.78-29.88L21.78-29.88Q22.61-29.88 23.46-29.32 24.32-28.76 24.32-27.83L24.32-27.83 24.32-27.64 18.75-6.79Q18.75-6.69 18.65-6.18 18.55-5.66 18.46-5.05 18.36-4.44 18.26-3.83 18.16-3.22 18.12-2.88L18.12-2.88Q18.07-2.44 18.04-1.93 18.02-1.42 17.85-1 17.68-0.59 17.33-0.29 16.99 0 16.31 0L16.31 0Q15.14 0 14.55-0.63 13.96-1.27 13.67-2.17 13.38-3.08 13.18-4.08 12.99-5.08 12.55-5.76L12.55-5.76ZM47.02-13.87L47.02-13.87Q46.92-12.99 46.8-12.5 46.68-12.01 46.38-11.62 46.09-11.23 45.55-10.82 45.02-10.4 44.09-9.64 43.16-8.89 41.79-7.67 40.43-6.45 38.47-4.49L38.47-4.49Q37.69-3.76 36.86-2.98 36.03-2.2 35.13-1.59 34.23-0.98 33.25-0.59 32.27-0.2 31.2-0.2L31.2-0.2Q29.1-0.2 28.12-1.61 27.15-3.03 27.15-4.88L27.15-4.88Q27.15-6.1 27.22-6.93 27.29-7.76 27.59-9.08L27.59-9.08Q27.05-9.57 26.66-9.94 26.27-10.3 26.27-10.94L26.27-10.94Q26.27-11.52 26.54-11.72 26.8-11.91 27.17-11.99 27.54-12.06 27.88-12.16 28.22-12.26 28.37-12.55L28.37-12.55Q28.46-12.84 28.73-13.62 29-14.4 29.29-15.26 29.59-16.11 29.86-16.87 30.12-17.63 30.22-17.92L30.22-17.92Q30.56-18.75 30.98-19.6 31.39-20.46 31.96-21.14 32.52-21.83 33.27-22.27 34.03-22.71 35.06-22.71L35.06-22.71Q35.64-22.71 36.5-22.17 37.35-21.63 38.13-20.87 38.91-20.12 39.45-19.29 39.99-18.46 39.99-17.87L39.99-17.87Q39.99-17.14 39.65-16.53 39.3-15.92 38.79-15.41 38.28-14.89 37.69-14.45 37.11-14.01 36.62-13.62L36.62-13.62Q36.57-13.62 36.42-13.53 36.28-13.43 36.18-13.38L36.18-13.38Q36.13-13.33 35.96-13.16 35.79-12.99 35.59-12.79 35.4-12.6 35.23-12.4 35.06-12.21 35.01-12.16L35.01-12.16Q34.86-12.01 34.45-11.69 34.03-11.38 33.54-11.01 33.05-10.64 32.64-10.33 32.22-10.01 32.08-9.91L32.08-9.91 31.88-9.52Q31.78-9.33 31.71-8.67 31.64-8.01 31.54-7.18 31.44-6.35 31.37-5.49 31.3-4.64 31.3-4.1L31.3-4.1Q31.3-4.05 31.35-4L31.35-4Q31.44-3.91 31.49-3.91L31.49-3.91Q31.88-3.91 32.22-4.25 32.57-4.59 32.96-4.74L32.96-4.74 40.77-11.96 42.77-15.04Q43.02-15.38 43.72-15.8 44.43-16.21 45.16-16.24 45.9-16.26 46.46-15.77 47.02-15.28 47.02-13.87ZM33.05-15.58L36.28-17.68Q36.52-17.87 36.47-18.26 36.42-18.65 36.2-18.95 35.98-19.24 35.64-19.31 35.3-19.38 35.01-18.95L35.01-18.95Q34.86-18.75 34.49-18.16 34.13-17.58 33.76-16.97 33.4-16.36 33.15-15.92 32.91-15.48 33.05-15.58L33.05-15.58ZM50.63-1.86L50.63-1.86Q50.14-6.74 49.8-10.21 49.46-13.67 49.21-16.02 48.97-18.36 48.8-19.75 48.63-21.14 48.53-21.85 48.43-22.56 48.38-22.8 48.33-23.05 48.33-23.1L48.33-23.1 48.33-23.29Q48.33-23.83 48.8-24.19 49.26-24.56 49.75-24.56L49.75-24.56Q50.48-24.56 51.34-24.32 52.19-24.07 52.49-23.29L52.49-23.29Q52.92-20.9 53.1-18.46 53.27-16.02 53.39-13.6 53.51-11.18 53.73-8.74 53.95-6.3 54.54-3.91L54.54-3.91Q54.54-3.81 54.61-3.52 54.68-3.22 54.76-2.88 54.83-2.54 54.88-2.25 54.93-1.95 54.93-1.86L54.93-1.86 54.93-1.76Q54.93-1.71 54.98-1.66L54.98-1.66Q54.98-1.07 54.44-0.49 53.9 0.1 53.32 0L53.32 0Q53.17-0.05 52.61-0.17 52.05-0.29 51.85-0.39L51.85-0.39Q51.7-0.44 51.46-0.61 51.22-0.78 51-0.98 50.78-1.17 50.63-1.42 50.48-1.66 50.63-1.86ZM47.9-37.45L47.9-37.45Q47.9-37.79 48.46-38.06 49.02-38.33 49.31-38.33L49.31-38.33Q50.04-38.33 50.95-37.92 51.85-37.5 51.85-36.67L51.85-36.67Q51.85-35.84 51.63-35.55 51.41-35.25 50.58-35.25L50.58-35.25Q49.7-35.25 48.8-35.84 47.9-36.43 47.9-37.45ZM64.15-1.86L64.15-1.86Q64.15-2.1 64.18-2.29 64.2-2.49 64.4-2.69L64.4-2.69Q64.98-3.42 65.72-4.22 66.45-5.03 67.13-5.83 67.81-6.64 68.4-7.52 68.99-8.4 69.38-9.28L69.38-9.28 69.38-9.57 62.98-8.25 62.25-8.25Q61.56-8.25 60.56-8.35 59.56-8.45 58.61-8.76 57.66-9.08 57-9.67 56.34-10.25 56.34-11.23L56.34-11.23Q56.39-12.35 57.51-13.72 58.64-15.09 60.15-16.41 61.66-17.72 63.2-18.85 64.74-19.97 65.67-20.61L65.67-20.61Q66.69-21.19 68.11-21.56 69.52-21.92 70.7-21.92L70.7-21.92Q71.67-21.92 72.4-21.56 73.14-21.19 73.14-20.12L73.14-20.12Q73.14-19.68 73.06-19.29 72.99-18.9 72.45-18.75L72.45-18.75Q70.89-18.9 69.52-18.53 68.16-18.16 66.94-17.43 65.72-16.7 64.64-15.7 63.57-14.7 62.54-13.62L62.54-13.62Q62.25-13.28 61.81-12.67 61.37-12.06 61.37-11.96L61.37-11.96 61.37-11.91Q62.64-11.91 63.88-12.16 65.13-12.4 66.37-12.67 67.62-12.94 68.86-13.18 70.11-13.43 71.43-13.43L71.43-13.43Q71.92-13.43 72.5-13.35 73.09-13.28 73.6-13.04 74.11-12.79 74.43-12.38 74.75-11.96 74.75-11.33L74.75-11.33Q74.75-10.4 74.28-9.55 73.82-8.69 72.92-7.5 72.01-6.3 70.62-4.59 69.23-2.88 67.33-0.2L67.33-0.2Q67.23-0.05 66.86 0 66.5 0.05 66.25 0.05L66.25 0.05Q65.57 0.05 64.86-0.54 64.15-1.12 64.15-1.86ZM77.28-3.42L77.28-3.42Q77.28-5.47 77.38-7.42 77.48-9.38 77.48-11.43L77.48-11.43Q77.33-16.99 77.38-22.34 77.43-27.69 76.89-33.3L76.89-33.3Q76.89-34.23 77.33-34.55 77.77-34.86 78.65-34.86L78.65-34.86Q79.78-34.86 80.58-34.2 81.39-33.54 81.44-32.37L81.44-32.37Q81.34-25.44 81.61-18.63 81.87-11.82 81.87-4.83L81.87-4.83 81.87-1.07Q81.58-0.68 81.04-0.29 80.51 0.1 79.97 0L79.97 0Q78.55-0.24 77.92-1.15 77.28-2.05 77.28-3.42ZM95.93-13.38L95.74-13.62Q95.3-12.84 94.74-11.74 94.18-10.64 93.54-9.4 92.91-8.15 92.15-6.91 91.39-5.66 90.59-4.64 89.78-3.61 88.9-2.91 88.02-2.2 87.1-2.05L87.1-2.05Q86.71-2.05 86.22-2.12 85.73-2.2 85.24-2.37 84.75-2.54 84.44-2.86 84.12-3.17 84.12-3.71L84.12-3.71Q84.17-8.69 84.85-12.77 85.53-16.85 87-19.95 88.46-23.05 90.76-25.1 93.05-27.15 96.33-28.03L96.33-28.03Q96.42-28.03 96.69-28.05 96.96-28.08 97.06-28.08L97.06-28.08Q98.52-28.13 99.18-26.73 99.84-25.34 100.16-22.34 100.48-19.34 100.6-14.62 100.72-9.91 101.11-3.32L101.11-3.32Q101.26-2.78 101.28-2.39 101.31-2 101.31-1.46L101.31-1.46Q101.31-0.73 100.87-0.37 100.43 0 99.74 0L99.74 0Q98.33 0 97.74-0.78 97.16-1.56 96.96-2.88L96.96-2.88Q96.96-2.93 96.89-3.66 96.81-4.39 96.69-5.35 96.57-6.3 96.47-7.28 96.37-8.25 96.33-8.89L96.33-8.89 96.33-9.08Q96.23-9.57 96.2-10.3 96.18-11.04 96.08-11.72L96.08-11.72Q95.98-12.55 95.93-13.38L95.93-13.38ZM94.67-23.29L94.67-23.29Q93.35-22.31 92.08-20.65 90.81-18.99 90.27-17.43L90.27-17.43Q90.03-16.7 89.73-15.43 89.44-14.16 89.22-12.92 89-11.67 88.85-10.62 88.71-9.57 88.71-9.28L88.71-9.28Q88.76-9.28 88.83-9.38 88.9-9.47 88.95-9.52L88.95-9.52Q91.98-12.45 93.22-15.84 94.47-19.24 94.67-23.29Z" opacity="1" transform="matrix(1,0,0,1,0,0)" fill="#ee4905" class="wordmark-text-0" data-fill-palette-color="primary"></path></svg></g><g><svg xmlns="http://www.w3.org/2000/svg" xmlns:xlink="http://www.w3.org/1999/xlink" version="1.1" x="177.7248046875" y="0" viewBox="4.999515985301906 8.865970389655025 90.00089400121459 82.26787353421113" enable-background="new 0 0 100 100" xml:space="preserve" height="62.0970703125" width="67.934074419186" class="icon-cg-0" data-fill-palette-color="accent" id="cg-0"><path d="M41.566 44.655c-5.268-5.268 2.462-13.901-7.3-23.664-7.823-7.823-22.103-10.663-26.91-5.855S5.39 34.223 13.211 42.045c9.763 9.764 18.397 2.032 23.665 7.3 3.835 3.835 34.765 38.495 36.636 40.366 2.067 2.066 5.629 1.858 7.953-0.467 2.326-2.326 2.534-5.888 0.468-7.954C80.062 79.42 45.376 48.466 41.566 44.655z" fill="#f7f3e3" data-fill-palette-color="accent"></path><path d="M94.533 20.961c-0.53-0.529-1.293-0.624-1.706-0.211L76.282 37.295c-0.412 0.412-1.178 0.316-1.707-0.214l-0.039-0.038c-0.529-0.53-0.626-1.296-0.214-1.708l16.546-16.544c0.412-0.413 0.318-1.177-0.212-1.706-0.529-0.528-1.292-0.623-1.703-0.21L72.407 33.42c-0.412 0.412-1.177 0.315-1.708-0.214l-0.037-0.038c-0.532-0.531-0.627-1.295-0.214-1.708l16.544-16.545c0.413-0.412 0.318-1.176-0.211-1.705s-1.293-0.624-1.705-0.211L68.532 29.544c-0.413 0.411-1.179 0.316-1.708-0.214l-0.038-0.039c-0.531-0.529-0.627-1.294-0.215-1.708l16.545-16.544c0.413-0.412 0.318-1.176-0.211-1.705S81.613 8.71 81.2 9.123L59.771 30.552c-2.856 3.241 0.563 8.272-2.731 11.567l-2.541 2.536c-0.736 0.735-2.613 2.475-5.17 4.81 1.598 1.454 3.394 3.081 5.305 4.81 2.222-2.428 3.868-4.202 4.575-4.909l2.538-2.538c3.295-3.296 8.327 0.125 11.569-2.733l21.427-21.428C95.156 22.253 95.062 21.49 94.533 20.961z" fill="#f7f3e3" data-fill-palette-color="accent"></path><path d="M14.131 81.29c-2.066 2.066-1.857 5.628 0.467 7.954 2.326 2.325 5.887 2.533 7.954 0.467 1.186-1.187 14.072-15.556 24.317-26.886-2.01-2.223-3.894-4.303-5.538-6.106C29.949 67 15.329 80.093 14.131 81.29z" fill="#f7f3e3" data-fill-palette-color="accent"></path></svg></g></svg></g></svg></g><g transform="matrix(1,0,0,1,46.920845909377036,76.75669828359375)"><svg viewBox="0 0 151.81718728793194 12.177585600818098" height="12.177585600818098" width="151.81718728793194"><g transform="matrix(1,0,0,1,0,0)"><svg width="151.81718728793194" viewBox="-0.45 -28.15 461.84 37.05" height="12.177585600818098" data-palette-color="#d5b263"><path d="M11.25-10.25L9.2-10.25-0.45-28.15 2.05-28.15 10.35-12.65 18.5-28.15 21-28.15 11.25-10.25ZM11.4 0L9.1 0 9.1-10.9 11.4-10.9 11.4 0ZM29.75 0.5L29.75 0.5Q26.6 0.5 24.47-0.83 22.35-2.15 21.3-4.5 20.25-6.85 20.25-9.85L20.25-9.85Q20.25-12.9 21.3-15.28 22.35-17.65 24.47-18.98 26.6-20.3 29.75-20.3L29.75-20.3Q34.35-20.3 36.77-17.43 39.2-14.55 39.2-9.85L39.2-9.85Q39.2-6.95 38.2-4.58 37.2-2.2 35.1-0.85 33 0.5 29.75 0.5ZM29.75-1.55L29.75-1.55Q32.55-1.55 34.1-2.8 35.65-4.05 36.27-5.98 36.9-7.9 36.9-9.9L36.9-9.9Q36.9-11.95 36.27-13.88 35.65-15.8 34.1-17.05 32.55-18.3 29.75-18.3L29.75-18.3Q27-18.3 25.4-17.05 23.8-15.8 23.17-13.88 22.55-11.95 22.55-9.9L22.55-9.9Q22.55-7.9 23.17-5.98 23.8-4.05 25.4-2.8 27-1.55 29.75-1.55ZM51.05 0.5L51.05 0.5Q49.14 0.5 47.77-0.05 46.39-0.6 45.49-1.58 44.59-2.55 44.09-3.83 43.59-5.1 43.39-6.6 43.2-8.1 43.2-9.7L43.2-9.7 43.2-20.3 45.45-20.3 45.45-9.7Q45.45-7.45 45.92-5.6 46.39-3.75 47.74-2.68 49.09-1.6 51.59-1.6L51.59-1.6Q53.99-1.6 55.42-2.73 56.84-3.85 57.55-5.63 58.25-7.4 58.34-9.4L58.34-9.4 58.34-20.3 60.7-20.3 60.7 0 58.8 0 58.39-4.85 58.3-4.85Q58.05-4.05 57.5-3.15 56.95-2.25 56.07-1.4 55.2-0.55 53.95-0.03 52.7 0.5 51.05 0.5ZM68.09 0L65.84 0 65.84-20.3 67.79-20.3 68.14-14.45 68.09-10.1 68.09 0ZM68.09-9.8L68.09-9.8 67.94-14.2Q68.04-15.4 68.57-16.5 69.09-17.6 70.07-18.45 71.04-19.3 72.42-19.8 73.79-20.3 75.64-20.3L75.64-20.3 76.74-20.3 76.74-17.75 75.64-17.75Q73.09-17.75 71.57-17.13 70.04-16.5 69.29-15.43 68.54-14.35 68.32-12.9 68.09-11.45 68.09-9.8ZM94.09 0L91.79 0 91.79-28.15 94.09-28.15 94.09-14.9 94.19-14.9Q94.29-15.25 94.69-16.1 95.09-16.95 95.94-17.93 96.79-18.9 98.16-19.6 99.54-20.3 101.59-20.3L101.59-20.3Q103.69-20.3 105.09-19.7 106.49-19.1 107.36-18.05 108.24-17 108.69-15.68 109.14-14.35 109.29-12.93 109.44-11.5 109.44-10.05L109.44-10.05 109.44 0 107.24 0 107.24-10.05Q107.24-12.55 106.69-14.38 106.14-16.2 104.84-17.2 103.54-18.2 101.19-18.2L101.19-18.2Q98.79-18.2 97.21-17 95.64-15.8 94.86-13.85 94.09-11.9 94.09-9.6L94.09-9.6 94.09 0ZM120.84 0.45L120.84 0.45Q118.04 0.45 116.19-0.95 114.34-2.35 113.44-4.73 112.54-7.1 112.54-10L112.54-10Q112.54-13.05 113.46-15.4 114.39-17.75 116.26-19.13 118.14-20.5 120.84-20.5L120.84-20.5Q122.34-20.5 123.49-20.1 124.64-19.7 125.54-19.05 126.44-18.4 127.06-17.57 127.69-16.75 128.04-15.8L128.04-15.8 128.09-15.8 128.09-20.3 130.44-20.3 130.44 0 128.54 0 128.14-4.2 128.04-4.2Q127.64-3.3 127.01-2.48 126.39-1.65 125.49-0.98 124.59-0.3 123.44 0.08 122.29 0.45 120.84 0.45ZM121.69-1.65L121.69-1.65Q123.84-1.65 125.26-2.65 126.69-3.65 127.39-5.53 128.09-7.4 128.09-9.95L128.09-9.95Q128.09-12.75 127.34-14.58 126.59-16.4 125.16-17.35 123.74-18.3 121.69-18.3L121.69-18.3Q119.34-18.3 117.81-17.2 116.29-16.1 115.56-14.25 114.84-12.4 114.84-10L114.84-10Q114.84-7.55 115.59-5.65 116.34-3.75 117.86-2.7 119.39-1.65 121.69-1.65ZM136.58 0L134.28 0 134.28-20.3 136.18-20.3 136.58-14.9 136.68-14.9Q136.78-15.25 137.18-16.1 137.58-16.95 138.43-17.93 139.28-18.9 140.68-19.6 142.08-20.3 144.18-20.3L144.18-20.3Q146.28-20.3 147.66-19.7 149.03-19.1 149.91-18.07 150.78-17.05 151.23-15.73 151.68-14.4 151.83-12.95 151.98-11.5 151.98-10.05L151.98-10.05 151.98 0 149.73 0 149.73-10.05Q149.73-12.55 149.18-14.38 148.63-16.2 147.33-17.2 146.03-18.2 143.73-18.2L143.73-18.2Q141.28-18.2 139.71-17 138.13-15.8 137.36-13.85 136.58-11.9 136.58-9.6L136.58-9.6 136.58 0ZM165.58 0.5L165.58 0.5Q162.68 0.5 160.66-0.9 158.63-2.3 157.58-4.65 156.53-7 156.53-9.9L156.53-9.9Q156.53-12.85 157.61-15.2 158.68-17.55 160.71-18.93 162.73-20.3 165.63-20.3L165.63-20.3Q167.68-20.3 169.13-19.6 170.58-18.9 171.43-17.9 172.28-16.9 172.71-16.03 173.13-15.15 173.28-14.8L173.28-14.8 173.38-14.8 173.38-28.15 175.73-28.15 175.73 0 173.83 0 173.43-4.9 173.33-4.9Q173.18-4.65 172.71-3.78 172.23-2.9 171.33-1.9 170.43-0.9 169.01-0.2 167.58 0.5 165.58 0.5ZM165.88-1.65L165.88-1.65Q167.93-1.65 169.61-2.6 171.28-3.55 172.28-5.43 173.28-7.3 173.28-9.9L173.28-9.9Q173.28-12.5 172.36-14.33 171.43-16.15 169.83-17.13 168.23-18.1 166.23-18.1L166.23-18.1Q163.73-18.1 162.08-16.93 160.43-15.75 159.61-13.88 158.78-12 158.78-9.9L158.78-9.9Q158.78-7.85 159.51-5.93 160.23-4 161.81-2.83 163.38-1.65 165.88-1.65ZM180.53 8.9L177.83 8.9 177.83 7 180.43 7Q181.13 7 181.58 6.75 182.03 6.5 182.5 5.83 182.98 5.15 183.58 3.85L183.58 3.85 186.08-1.6 178.13-20.3 180.53-20.3 187.28-4.1 194.43-20.3 196.88-20.3 185.58 4.25Q184.93 5.75 184.38 6.68 183.83 7.6 183.28 8.1 182.73 8.6 182.05 8.75 181.38 8.9 180.53 8.9L180.53 8.9ZM214.72 0L212.47 0 212.47-20.3 214.42-20.3 214.77-14.45 214.72-10.1 214.72 0ZM214.72-9.8L214.72-9.8 214.57-14.2Q214.67-15.4 215.2-16.5 215.72-17.6 216.7-18.45 217.67-19.3 219.05-19.8 220.42-20.3 222.27-20.3L222.27-20.3 223.37-20.3 223.37-17.75 222.27-17.75Q219.72-17.75 218.2-17.13 216.67-16.5 215.92-15.43 215.17-14.35 214.95-12.9 214.72-11.45 214.72-9.8ZM234.67 0.5L234.67 0.5Q231.42 0.5 229.3-1.05 227.17-2.6 226.12-5.03 225.07-7.45 225.12-10.05L225.12-10.05Q225.12-12.75 226.22-15.1 227.32-17.45 229.45-18.88 231.57-20.3 234.62-20.3L234.62-20.3Q237.17-20.3 239.15-19.18 241.12-18.05 242.32-16.03 243.52-14 243.67-11.2L243.67-11.2Q243.72-10.95 243.72-10.6 243.72-10.25 243.72-9.95L243.72-9.95 227.32-9.95Q227.32-6.1 229.25-3.8 231.17-1.5 234.67-1.5L234.67-1.5Q237.22-1.5 239.1-2.85 240.97-4.2 241.42-6.5L241.42-6.5 243.67-6.5Q243.32-4.45 242.07-2.88 240.82-1.3 238.92-0.4 237.02 0.5 234.67 0.5ZM227.47-11.45L227.47-11.45 241.37-11.45Q241.32-12.4 240.95-13.58 240.57-14.75 239.77-15.85 238.97-16.95 237.7-17.65 236.42-18.35 234.62-18.35L234.62-18.35Q232.97-18.35 231.72-17.78 230.47-17.2 229.6-16.25 228.72-15.3 228.2-14.08 227.67-12.85 227.47-11.45ZM256.92 0.5L256.92 0.5Q254.07 0.5 251.89-0.7 249.72-1.9 248.47-4.2 247.22-6.5 247.22-9.65L247.22-9.65Q247.32-12.85 248.54-15.25 249.77-17.65 251.97-18.98 254.17-20.3 257.07-20.3L257.07-20.3Q259.57-20.3 261.47-19.38 263.37-18.45 264.59-16.85 265.82-15.25 266.17-13.2L266.17-13.2 264.02-13.2Q263.52-15.55 261.67-16.88 259.82-18.2 257.12-18.2L257.12-18.2Q254.82-18.2 253.12-17.13 251.42-16.05 250.47-14.15 249.52-12.25 249.47-9.75L249.47-9.75Q249.47-6.05 251.49-3.83 253.52-1.6 256.97-1.6L256.97-1.6Q259.67-1.6 261.59-2.95 263.52-4.3 264.02-6.65L264.02-6.65 266.17-6.65Q265.82-4.6 264.54-3 263.27-1.4 261.34-0.45 259.42 0.5 256.92 0.5ZM273.07 0L270.77 0 270.77-20.3 273.07-20.3 273.07 0ZM271.97-23.55L271.97-23.55Q270.97-23.55 270.59-24.08 270.22-24.6 270.22-25.3L270.22-25.3Q270.22-26 270.59-26.5 270.97-27 271.97-27L271.97-27Q273.02-27 273.34-26.5 273.67-26 273.67-25.3L273.67-25.3Q273.67-24.6 273.34-24.08 273.02-23.55 271.97-23.55ZM288.36 0.5L288.36 0.5Q286.36 0.5 284.96-0.2 283.56-0.9 282.66-1.9 281.76-2.9 281.29-3.78 280.81-4.65 280.66-4.9L280.66-4.9 280.56-4.9 280.56 8 278.26 8 278.26-20.3 280.21-20.3 280.61-14.8 280.71-14.8Q280.86-15.15 281.26-16.03 281.66-16.9 282.54-17.9 283.41-18.9 284.84-19.6 286.26-20.3 288.31-20.3L288.31-20.3Q291.26-20.3 293.29-18.9 295.31-17.5 296.39-15.15 297.46-12.8 297.46-9.85L297.46-9.85Q297.46-6.9 296.36-4.55 295.26-2.2 293.24-0.85 291.21 0.5 288.36 0.5ZM288.11-1.65L288.11-1.65Q290.61-1.65 292.19-2.83 293.76-4 294.49-5.93 295.21-7.85 295.21-9.9L295.21-9.9Q295.21-12 294.41-13.88 293.61-15.75 291.94-16.93 290.26-18.1 287.76-18.1L287.76-18.1Q285.76-18.1 284.16-17.13 282.56-16.15 281.64-14.33 280.71-12.5 280.71-9.9L280.71-9.9Q280.71-7.3 281.71-5.43 282.71-3.55 284.39-2.6 286.06-1.65 288.11-1.65ZM310.06 0.5L310.06 0.5Q306.81 0.5 304.69-1.05 302.56-2.6 301.51-5.03 300.46-7.45 300.51-10.05L300.51-10.05Q300.51-12.75 301.61-15.1 302.71-17.45 304.84-18.88 306.96-20.3 310.01-20.3L310.01-20.3Q312.56-20.3 314.54-19.18 316.51-18.05 317.71-16.03 318.91-14 319.06-11.2L319.06-11.2Q319.11-10.95 319.11-10.6 319.11-10.25 319.11-9.95L319.11-9.95 302.71-9.95Q302.71-6.1 304.64-3.8 306.56-1.5 310.06-1.5L310.06-1.5Q312.61-1.5 314.49-2.85 316.36-4.2 316.81-6.5L316.81-6.5 319.06-6.5Q318.71-4.45 317.46-2.88 316.21-1.3 314.31-0.4 312.41 0.5 310.06 0.5ZM302.86-11.45L302.86-11.45 316.76-11.45Q316.71-12.4 316.34-13.58 315.96-14.75 315.16-15.85 314.36-16.95 313.09-17.65 311.81-18.35 310.01-18.35L310.01-18.35Q308.36-18.35 307.11-17.78 305.86-17.2 304.99-16.25 304.11-15.3 303.59-14.08 303.06-12.85 302.86-11.45ZM331.31 0.5L331.31 0.5Q329.26 0.5 327.81-0.08 326.36-0.65 325.41-1.55 324.46-2.45 323.91-3.4 323.36-4.35 323.13-5.15 322.91-5.95 322.91-6.35L322.91-6.35 325.16-6.35Q325.16-6.3 325.28-5.53 325.41-4.75 325.98-3.75 326.56-2.75 327.81-2.02 329.06-1.3 331.31-1.3L331.31-1.3Q332.96-1.3 334.31-1.68 335.66-2.05 336.46-2.88 337.26-3.7 337.26-5.05L337.26-5.05Q337.26-6.65 336.23-7.53 335.21-8.4 333.61-8.83 332.01-9.25 330.26-9.63 328.51-10 326.93-10.6 325.36-11.2 324.38-12.35 323.41-13.5 323.41-15.5L323.41-15.5Q323.46-17.9 325.66-19.38 327.86-20.85 331.31-20.85L331.31-20.85Q332.61-20.85 334.06-20.55 335.51-20.25 336.73-19.5 337.96-18.75 338.73-17.45 339.51-16.15 339.36-14.05L339.36-14.05 337.16-14.05Q337.21-15.6 336.63-16.55 336.06-17.5 335.08-18.03 334.11-18.55 333.06-18.7 332.01-18.85 331.16-18.85L331.16-18.85Q328.81-18.85 327.18-18 325.56-17.15 325.56-15.4L325.56-15.4Q325.56-13.95 326.56-13.15 327.56-12.35 329.16-11.93 330.76-11.5 332.51-11.15 334.26-10.8 335.86-10.15 337.46-9.5 338.46-8.3 339.46-7.1 339.46-4.95L339.46-4.95Q339.46-3 338.38-1.8 337.31-0.6 335.46-0.05 333.61 0.5 331.31 0.5ZM358.35 0L356.05 0 356.05-28.15 358.35-28.15 358.35 0ZM365.95 0L363.65 0 363.65-20.3 365.95-20.3 365.95 0ZM364.85-23.55L364.85-23.55Q363.85-23.55 363.48-24.08 363.1-24.6 363.1-25.3L363.1-25.3Q363.1-26 363.48-26.5 363.85-27 364.85-27L364.85-27Q365.9-27 366.23-26.5 366.55-26 366.55-25.3L366.55-25.3Q366.55-24.6 366.23-24.08 365.9-23.55 364.85-23.55ZM381.2 0.5L381.2 0.5Q379.2 0.5 377.8-0.2 376.4-0.9 375.47-1.9 374.55-2.9 374.07-3.78 373.6-4.65 373.5-4.9L373.5-4.9 373.4-4.9 373 0 371.05 0 371.05-28.15 373.45-28.15 373.45-14.8 373.55-14.8Q373.65-15.15 374.07-16.03 374.5-16.9 375.37-17.9 376.25-18.9 377.67-19.6 379.1-20.3 381.2-20.3L381.2-20.3Q384.1-20.3 386.12-18.93 388.15-17.55 389.22-15.18 390.3-12.8 390.3-9.9L390.3-9.9Q390.3-6.95 389.22-4.6 388.15-2.25 386.12-0.88 384.1 0.5 381.2 0.5ZM380.9-1.65L380.9-1.65Q383.4-1.65 384.97-2.83 386.55-4 387.27-5.93 388-7.85 388-9.9L388-9.9Q388-12 387.2-13.88 386.4-15.75 384.75-16.93 383.1-18.1 380.6-18.1L380.6-18.1Q378.6-18.1 377-17.13 375.4-16.15 374.45-14.33 373.5-12.5 373.5-9.9L373.5-9.9Q373.5-7.3 374.5-5.43 375.5-3.55 377.17-2.6 378.85-1.65 380.9-1.65ZM396.8 0L394.55 0 394.55-20.3 396.5-20.3 396.85-14.45 396.8-10.1 396.8 0ZM396.8-9.8L396.8-9.8 396.65-14.2Q396.75-15.4 397.27-16.5 397.8-17.6 398.77-18.45 399.75-19.3 401.12-19.8 402.5-20.3 404.35-20.3L404.35-20.3 405.45-20.3 405.45-17.75 404.35-17.75Q401.8-17.75 400.27-17.13 398.75-16.5 398-15.43 397.25-14.35 397.02-12.9 396.8-11.45 396.8-9.8ZM415.29 0.45L415.29 0.45Q412.49 0.45 410.64-0.95 408.79-2.35 407.89-4.73 406.99-7.1 406.99-10L406.99-10Q406.99-13.05 407.92-15.4 408.84-17.75 410.72-19.13 412.59-20.5 415.29-20.5L415.29-20.5Q416.79-20.5 417.94-20.1 419.09-19.7 419.99-19.05 420.89-18.4 421.52-17.57 422.14-16.75 422.49-15.8L422.49-15.8 422.54-15.8 422.54-20.3 424.89-20.3 424.89 0 422.99 0 422.59-4.2 422.49-4.2Q422.09-3.3 421.47-2.48 420.84-1.65 419.94-0.98 419.04-0.3 417.89 0.08 416.74 0.45 415.29 0.45ZM416.14-1.65L416.14-1.65Q418.29-1.65 419.72-2.65 421.14-3.65 421.84-5.53 422.54-7.4 422.54-9.95L422.54-9.95Q422.54-12.75 421.79-14.58 421.04-16.4 419.62-17.35 418.19-18.3 416.14-18.3L416.14-18.3Q413.79-18.3 412.27-17.2 410.74-16.1 410.02-14.25 409.29-12.4 409.29-10L409.29-10Q409.29-7.55 410.04-5.65 410.79-3.75 412.32-2.7 413.84-1.65 416.14-1.65ZM431.64 0L429.39 0 429.39-20.3 431.34-20.3 431.69-14.45 431.64-10.1 431.64 0ZM431.64-9.8L431.64-9.8 431.49-14.2Q431.59-15.4 432.12-16.5 432.64-17.6 433.62-18.45 434.59-19.3 435.97-19.8 437.34-20.3 439.19-20.3L439.19-20.3 440.29-20.3 440.29-17.75 439.19-17.75Q436.64-17.75 435.12-17.13 433.59-16.5 432.84-15.43 432.09-14.35 431.87-12.9 431.64-11.45 431.64-9.8ZM445.04 8.9L442.34 8.9 442.34 7 444.94 7Q445.64 7 446.09 6.75 446.54 6.5 447.01 5.83 447.49 5.15 448.09 3.85L448.09 3.85 450.59-1.6 442.64-20.3 445.04-20.3 451.79-4.1 458.94-20.3 461.39-20.3 450.09 4.25Q449.44 5.75 448.89 6.68 448.34 7.6 447.79 8.1 447.24 8.6 446.56 8.75 445.89 8.9 445.04 8.9L445.04 8.9Z" opacity="1" transform="matrix(1,0,0,1,0,0)" fill="#d5b263" class="slogan-text-1" data-fill-palette-color="secondary" id="text-1"></path></svg></g></svg></g></svg></g></svg></g></svg></g><defs></defs></svg><rect width="245.65887910668602" height="88.93428388441185" fill="none" stroke="none" visibility="hidden"></rect></g></svg></g></svg>